<svg width="10" height="14" viewBox="0 0 10 14" fill="none" xmlns="http://www.w3.org/2000/svg">
<mask id="mask0_214_2" style="mask-type:luminance" maskUnits="userSpaceOnUse" x="0" y="0" width="10" height="14">
<path d="M9.33333 0H0V14H9.33333V0Z" fill="white"/>
</mask>
<g mask="url(#mask0_214_2)">
<path d="M4.66666 7.00008C4.66666 6.38124 4.91249 5.78775 5.35007 5.35016C5.78766 4.91258 6.38115 4.66675 6.99999 4.66675C7.61883 4.66675 8.21232 4.91258 8.64991 5.35016C9.08749 5.78775 9.33332 6.38124 9.33332 7.00008C9.33332 7.61892 9.08749 8.21241 8.64991 8.65C8.21232 9.08758 7.61883 9.33342 6.99999 9.33342C6.38115 9.33342 5.78766 9.08758 5.35007 8.65C4.91249 8.21241 4.66666 7.61892 4.66666 7.00008Z" fill="#1ABCFE"/>
<path d="M0 11.6666C0 11.0478 0.245832 10.4542 0.683418 10.0166C1.121 9.57909 1.71449 9.33325 2.33333 9.33325H4.66667V11.6666C4.66667 12.2854 4.42083 12.8789 3.98325 13.3165C3.54567 13.754 2.95217 13.9999 2.33333 13.9999C1.71449 13.9999 1.121 13.754 0.683418 13.3165C0.245832 12.8789 0 12.2854 0 11.6666Z" fill="#0ACF83"/>
<path d="M4.66666 0V4.66667H6.99999C7.61883 4.66667 8.21232 4.42083 8.64991 3.98325C9.08749 3.54567 9.33332 2.95217 9.33332 2.33333C9.33332 1.71449 9.08749 1.121 8.64991 0.683418C8.21232 0.245832 7.61883 0 6.99999 0H4.66666Z" fill="#FF7262"/>
<path d="M0 2.33333C0 2.95217 0.245832 3.54567 0.683418 3.98325C1.121 4.42083 1.71449 4.66667 2.33333 4.66667H4.66667V0H2.33333C1.71449 0 1.121 0.245832 0.683418 0.683418C0.245832 1.121 0 1.71449 0 2.33333Z" fill="#F24E1E"/>
<path d="M0 7.00008C0 7.61892 0.245832 8.21241 0.683418 8.65C1.121 9.08758 1.71449 9.33342 2.33333 9.33342H4.66667V4.66675H2.33333C1.71449 4.66675 1.121 4.91258 0.683418 5.35016C0.245832 5.78775 0 6.38124 0 7.00008Z" fill="#A259FF"/>
</g>
</svg>
