<svg width="42" height="64" viewBox="0 0 42 64" fill="none" xmlns="http://www.w3.org/2000/svg">
<path d="M26.071 45.4263L27.0768 49.2302L28.0825 45.4263C30.0452 38.0028 34.8672 31.6583 41.4943 27.7798C34.8672 23.9013 30.0452 17.5568 28.0825 10.1332L27.0768 6.32935L26.071 10.1333C24.1083 17.5568 19.2863 23.9013 12.6592 27.7798C19.2863 31.6583 24.1083 38.0028 26.071 45.4263Z" fill="#26CA57"/>
<path d="M6.87784 19.9005L7.38458 21.8021L7.89131 19.9005C8.90183 16.1083 11.3753 12.8718 14.7692 10.901C11.3753 8.93031 8.90183 5.69382 7.89131 1.90164L7.38458 0L6.87784 1.90164C5.86733 5.69382 3.39383 8.93031 0 10.901C3.39383 12.8718 5.86733 16.1083 6.87784 19.9005Z" fill="#26CA57"/>
<path d="M9.69108 62.0982L10.1978 63.9998L10.7045 62.0982C11.7151 58.306 14.1886 55.0695 17.5824 53.0988C14.1886 51.1281 11.7151 47.8916 10.7045 44.0994L10.1978 42.1978L9.69108 44.0994C8.68056 47.8916 6.20706 51.1281 2.81323 53.0988C6.20706 55.0695 8.68056 58.306 9.69108 62.0982Z" fill="#26CA57"/>
</svg>
