<svg width="1630" height="702" viewBox="0 0 1630 702" fill="none" xmlns="http://www.w3.org/2000/svg">
<path d="M678.467 141.06C563.357 52.7182 469.715 -52.3036 397.147 -177.95L673.335 -337.348L1058.84 330.113C921.047 292.288 791.867 228.09 678.467 141.06Z" fill="#26CA57"/>
<path fill-rule="evenodd" clip-rule="evenodd" d="M1058.84 330.113C1060.91 330.684 1062.99 331.248 1065.07 331.806C1205.2 369.394 1351.34 379.019 1495.15 360.131C1638.96 341.243 1777.62 294.212 1903.22 221.724L1743.06 -55.5739C1653.87 -4.09431 1555.39 29.3059 1453.26 42.7196C1351.13 56.1333 1247.34 49.2979 1147.83 22.6036C1048.32 -4.09072 955.021 -50.1211 873.273 -112.859C791.525 -175.598 724.871 -248.117 673.335 -337.348L1058.84 330.113ZM846.524 600.108L397.147 -177.95C469.715 -52.3036 563.357 52.7182 678.467 141.06C791.867 228.09 921.047 292.288 1058.84 330.113L1506.67 1105.5C1434.1 979.851 1340.46 874.83 1225.35 786.488C1110.24 698.146 986.65 637.696 846.524 600.108ZM1230.48 1264.9C1178.94 1175.67 1112.29 1103.15 1030.54 1040.41C948.794 977.669 855.5 931.639 755.985 904.944C656.471 878.25 552.686 871.414 450.555 884.828C348.425 898.242 249.949 931.642 160.751 983.122L0.593988 705.824C126.194 633.335 264.858 586.305 408.668 567.417C552.478 548.529 706.398 562.52 846.524 600.108L1230.48 1264.9Z" fill="#19913C"/>
<path d="M1225.35 786.488C1340.46 874.83 1434.1 979.851 1506.67 1105.5L1230.48 1264.9L846.524 600.108C986.65 637.696 1110.24 698.146 1225.35 786.488Z" fill="#26CA57"/>
</svg>
