<svg width="1612" height="215" viewBox="0 0 1612 215" fill="none" xmlns="http://www.w3.org/2000/svg">
<mask id="mask0_247_541" style="mask-type:alpha" maskUnits="userSpaceOnUse" x="0" y="0" width="1612" height="215">
<rect width="1612" height="215" transform="matrix(1 0 0 -1 0 215)" fill="#D9D9D9"/>
</mask>
<g mask="url(#mask0_247_541)">
<path d="M1549.17 336.155C1548.64 334.438 1548.12 332.683 1547.6 330.891C1547.15 329.025 1546.74 327.12 1546.37 325.179C1545.62 321.744 1544.95 318.272 1544.35 314.763C1543.83 311.179 1543.42 307.744 1543.12 304.458C1542.82 301.173 1542.67 298.186 1542.67 295.498L1541.33 294.49V207.799V194.359V172.966C1541.33 166.918 1540.06 161.952 1537.52 158.069C1534.98 154.187 1530.83 151.312 1525.08 149.445C1519.41 147.504 1511.91 146.533 1502.57 146.533C1492.79 146.533 1484.88 147.578 1478.83 149.669C1472.78 151.76 1468.19 155.269 1465.05 160.198C1461.99 165.126 1460.16 171.883 1459.56 180.47H1395.05C1395.87 163.072 1400.01 148.437 1407.48 136.565C1415.02 124.618 1426.63 115.471 1442.31 109.124C1457.99 102.777 1478.27 99.6035 1503.13 99.6035C1527.1 99.6035 1546.66 102.441 1561.82 108.116C1576.98 113.791 1588.03 121.855 1594.98 132.309C1601.99 142.762 1605.5 155.344 1605.5 170.054V290.57C1605.5 294.453 1605.77 299.12 1606.29 304.57C1606.81 309.947 1607.56 315.472 1608.53 321.147C1609.57 326.747 1610.73 331.75 1612 336.155H1549.17ZM1468.08 342.54C1451.42 342.54 1436.83 339.926 1424.28 334.699C1411.74 329.473 1401.99 321.67 1395.05 311.291C1388.18 300.837 1384.74 288.068 1384.74 272.985C1384.74 259.769 1387.62 248.232 1393.37 238.376C1399.19 228.52 1408.56 220.418 1421.48 214.071C1434.4 207.724 1451.24 203.468 1472 201.303L1509.4 197.607C1516.72 196.86 1522.7 195.591 1527.33 193.799C1531.95 191.932 1535.43 189.319 1537.74 185.958C1540.13 182.598 1541.33 178.267 1541.33 172.966L1552.53 187.19C1552.15 198.839 1550.81 207.836 1548.49 214.183C1546.25 220.53 1542.6 225.272 1537.52 228.408C1532.51 231.469 1525.35 233.56 1516.01 234.68L1488.35 238.152C1479.09 239.272 1471.7 241.139 1466.17 243.752C1460.65 246.366 1456.65 249.726 1454.19 253.833C1451.8 257.939 1450.6 262.942 1450.6 268.841C1450.6 275.039 1451.95 280.34 1454.63 284.746C1457.32 289.077 1461.39 292.399 1466.84 294.714C1472.37 296.954 1479.2 298.074 1487.34 298.074C1497.35 298.074 1506.42 296.17 1514.56 292.362C1522.77 288.554 1529.27 282.767 1534.05 275.001C1538.9 267.236 1541.33 257.641 1541.33 246.216H1554.09L1554.65 275.561C1552.12 289.674 1547.11 301.733 1539.65 311.739C1532.25 321.744 1522.51 329.398 1510.41 334.699C1498.32 339.926 1484.2 342.54 1468.08 342.54Z" fill="white"/>
<path d="M1235.28 336.154V104.979H1298.11V165.013H1299.9V336.154H1235.28ZM1289.71 192.118C1289.71 175.541 1292.43 160.421 1297.89 146.756C1303.41 133.017 1311.89 122.041 1323.31 113.827C1334.81 105.539 1349.15 101.395 1366.32 101.395C1368.86 101.395 1371.29 101.469 1373.6 101.619C1375.99 101.768 1378.34 102.029 1380.66 102.403V161.429C1377.97 161.429 1375.32 161.429 1372.7 161.429C1370.17 161.429 1367.7 161.429 1365.31 161.429C1351.42 161.429 1339.63 163.781 1329.92 168.485C1320.21 173.114 1312.78 180.245 1307.63 189.878C1302.48 199.51 1299.9 211.569 1299.9 226.055H1289.71V192.118Z" fill="white"/>
<path d="M1171.41 337.611C1153.49 337.611 1138.82 335.594 1127.39 331.562C1116.04 327.456 1107.57 320.959 1101.97 312.074C1096.44 303.113 1093.68 291.39 1093.68 276.905V169.381V129.06V89.2982V34.1924H1158.3V89.2982V129.06V169.381V266.712C1158.3 271.864 1159.2 275.934 1160.99 278.921C1162.78 281.833 1165.55 283.886 1169.28 285.081C1173.01 286.201 1178.17 286.761 1184.74 286.761C1186.98 286.761 1189.4 286.761 1192.02 286.761C1194.71 286.761 1197.47 286.761 1200.31 286.761H1203.67V336.155C1203.14 336.155 1202.62 336.192 1202.1 336.267C1201.58 336.341 1201.05 336.379 1200.53 336.379C1195.6 336.827 1190.64 337.125 1185.63 337.275C1180.71 337.499 1175.96 337.611 1171.41 337.611ZM1056.94 154.596V104.979H1126.16H1203.67V154.596H1126.16H1056.94Z" fill="white"/>
<path d="M936.46 341.532C912.79 341.532 892.069 336.603 874.298 326.747C856.601 316.816 842.937 302.741 833.304 284.522C823.672 266.228 818.856 244.91 818.856 220.568C818.856 196.151 823.672 174.833 833.304 156.613C842.937 138.394 856.676 124.356 874.522 114.5C892.368 104.569 913.275 99.6035 937.244 99.6035C958.898 99.6035 977.827 103.449 994.03 111.14C1010.23 118.756 1023.04 129.471 1032.45 143.285C1041.93 157.024 1047.6 172.854 1049.47 190.775H984.398C982.605 182.038 979.469 174.758 974.989 168.934C970.509 163.11 964.984 158.816 958.413 156.053C951.842 153.216 944.524 151.797 936.46 151.797C925.633 151.797 916.337 154.299 908.571 159.302C900.805 164.23 894.832 171.809 890.65 182.038C886.544 192.268 884.49 205.111 884.49 220.568C884.49 236.248 886.581 249.203 890.762 259.433C894.944 269.588 900.88 277.129 908.571 282.058C916.262 286.911 925.483 289.338 936.236 289.338C944.599 289.338 952.103 287.882 958.749 284.97C965.469 281.983 971.106 277.391 975.661 271.193C980.216 264.996 983.352 257.193 985.07 247.784H1049.47C1047.31 266.601 1041.3 283.066 1031.44 297.178C1021.66 311.291 1008.63 322.23 992.35 329.995C976.072 337.686 957.442 341.532 936.46 341.532Z" fill="white"/>
<path d="M679.558 341.532C655.739 341.532 634.869 336.678 616.948 326.971C599.028 317.264 585.176 303.338 575.395 285.194C565.613 266.974 560.722 245.582 560.722 221.016C560.722 196.897 565.538 175.691 575.171 157.397C584.878 139.029 598.654 124.804 616.5 114.724C634.346 104.644 655.141 99.6035 678.886 99.6035C702.631 99.6035 723.314 104.644 740.936 114.724C758.633 124.804 772.223 138.954 781.706 157.173C791.189 175.318 795.93 196.225 795.93 219.896C795.93 222.584 795.855 225.496 795.706 228.632C795.557 231.693 795.37 235.053 795.146 238.712H596.563V198.167H748.329L732.424 207.239C732.349 195.217 730.221 184.726 726.04 175.766C721.933 166.731 715.847 159.712 707.783 154.709C699.719 149.632 689.863 147.093 678.214 147.093C666.715 147.093 656.859 149.595 648.645 154.597C640.506 159.6 634.197 167.142 629.717 177.222C625.311 187.302 623.071 199.884 622.996 214.967V231.544C622.996 245.432 625.236 257.118 629.717 266.601C634.271 276.009 640.842 283.103 649.429 287.882C658.091 292.661 668.507 295.05 680.678 295.05C689.265 295.05 696.844 293.818 703.415 291.354C710.061 288.89 715.549 285.343 719.88 280.714C724.285 276.084 727.608 270.484 729.848 263.913H790.778C786.82 279.818 779.802 293.594 769.721 305.242C759.641 316.891 746.91 325.851 731.528 332.123C716.221 338.396 698.898 341.532 679.558 341.532Z" fill="white"/>
<path d="M437.245 341.532C417.01 341.532 400.06 336.379 386.395 326.075C372.806 315.696 362.651 301.472 355.93 283.402C349.285 265.257 345.962 244.312 345.962 220.568V219.672C345.962 196.151 349.322 175.393 356.042 157.397C362.763 139.328 372.955 125.178 386.619 114.948C400.284 104.718 417.159 99.6035 437.245 99.6035C457.555 99.6035 475.289 104.569 490.447 114.5C505.605 124.431 517.253 138.506 525.392 156.725C533.606 174.945 537.713 196.225 537.713 220.568C537.713 244.91 533.606 266.19 525.392 284.41C517.253 302.629 505.605 316.704 490.447 326.635C475.289 336.566 457.555 341.532 437.245 341.532ZM302.057 427.55V104.98H364.555V160.646H359.963V279.146H366.683V427.55H302.057ZM418.205 289.338C429.256 289.338 438.813 286.575 446.877 281.05C455.016 275.524 461.251 267.534 465.582 257.081C469.913 246.552 472.078 233.971 472.078 219.335C472.078 204.775 469.913 192.455 465.582 182.374C461.326 172.219 455.128 164.566 446.989 159.414C438.925 154.187 429.33 151.573 418.205 151.573C406.929 151.573 397.26 154.261 389.196 159.638C381.131 164.939 374.934 172.742 370.603 183.046C366.272 193.351 364.107 205.783 364.107 220.344C364.107 234.904 366.272 247.374 370.603 257.753C374.934 268.057 381.131 275.897 389.196 281.274C397.26 286.65 406.929 289.338 418.205 289.338Z" fill="white"/>
<path d="M139.557 343.547C110.51 343.547 85.6455 339.254 64.9622 330.667C44.3535 322.005 28.5236 309.311 17.4726 292.585C6.42155 275.785 0.597353 255.288 0 231.095H69.3303C69.7783 245.507 73.0264 256.931 79.0746 265.369C85.1228 273.806 93.2991 279.78 103.603 283.289C113.908 286.799 126.191 288.553 140.453 288.553C153.818 288.553 165.019 287.06 174.054 284.073C183.163 281.012 189.996 276.457 194.551 270.409C199.18 264.361 201.495 256.819 201.495 247.784C201.495 240.317 199.516 234.007 195.559 228.855C191.676 223.703 185.292 219.335 176.406 215.751C167.595 212.092 155.536 208.881 140.229 206.119L105.172 199.958C85.8322 196.524 68.9943 190.923 54.6578 183.158C40.396 175.392 29.1956 164.939 21.0567 151.797C12.9178 138.58 8.8483 122.564 8.8483 103.747C8.8483 85.9012 13.1044 69.9593 21.6167 55.9215C30.2037 41.8837 43.6068 30.7207 61.8261 22.4324C80.12 14.1441 103.193 10 131.044 10C160.091 10 184.246 14.1068 203.511 22.3204C222.775 30.4594 237.299 42.1824 247.08 57.4896C256.862 72.7221 262.313 91.0907 263.433 112.595H197.351C196.38 101.992 193.766 93.2188 189.51 86.2746C185.254 79.2557 178.534 73.9168 169.35 70.258C160.24 66.5246 148.106 64.6578 132.948 64.6578C120.852 64.6578 110.772 66.0392 102.707 68.802C94.7178 71.5647 88.7443 75.5595 84.7868 80.7864C80.8294 86.0132 78.8506 92.2481 78.8506 99.491C78.8506 106.883 80.456 113.081 83.6668 118.084C86.9522 123.012 92.3658 127.231 99.9073 130.74C107.449 134.25 117.828 137.236 131.044 139.7L164.646 145.637C190.108 150.117 210.716 156.501 226.472 164.789C242.301 173.003 253.875 183.307 261.193 195.702C268.51 208.097 272.169 223.031 272.169 240.504C272.169 261.486 267.054 279.742 256.825 295.274C246.595 310.73 231.549 322.64 211.687 331.003C191.825 339.366 167.782 343.547 139.557 343.547Z" fill="white"/>
<path d="M709.091 99.9539C675.848 104.325 643.387 102.467 611 93.7994L630.083 22.6699L802.132 68.7129C773.438 85.0364 741.841 95.6478 709.091 99.9539Z" fill="#26CA57"/>
<path fill-rule="evenodd" clip-rule="evenodd" d="M802.132 68.7129C802.564 68.4669 802.996 68.2196 803.427 67.971C832.465 51.227 857.916 28.9346 878.328 2.36666C898.74 -24.2012 913.712 -54.5244 922.39 -86.8714L850.912 -106C844.749 -83.0279 834.116 -61.4931 819.62 -42.6252C805.124 -23.7573 787.05 -7.92584 766.428 3.96539C745.806 15.8566 723.041 23.5747 699.432 26.6789C675.824 29.7832 653.084 28.8253 630.083 22.6699L802.132 68.7129ZM811.557 147.472L611 93.7994C643.387 102.467 675.848 104.325 709.091 99.9539C741.841 95.6478 773.438 85.0364 802.132 68.7129L1002 122.201C969.613 113.533 937.152 111.675 903.909 116.046C870.666 120.417 840.595 130.727 811.557 147.472ZM982.917 193.33C959.916 187.175 937.176 186.217 913.568 189.321C889.959 192.425 867.194 200.143 846.572 212.035C825.95 223.926 807.876 239.757 793.38 258.625C778.884 277.493 768.251 299.028 762.088 322L690.61 302.871C699.288 270.524 714.26 240.201 734.672 213.633C755.084 187.065 782.519 164.216 811.557 147.472L982.917 193.33Z" fill="#19913C"/>
<path d="M903.909 116.046C937.152 111.675 969.613 113.533 1002 122.201L982.917 193.33L811.557 147.472C840.595 130.727 870.666 120.417 903.909 116.046Z" fill="#26CA57"/>
</g>
</svg>
