<svg width="140" height="140" viewBox="0 0 140 140" fill="none" xmlns="http://www.w3.org/2000/svg">
<circle cx="70" cy="70" r="70" fill="#26CA57"/>
<path d="M38.185 61V46.76H48.515V48.875H40.57V58.885H48.445V61H38.185ZM39.455 54.695V52.625H47.775V54.695H39.455ZM48.6717 61L52.8967 55.245L52.8817 56.155L48.9017 50.68H51.4467L53.1267 53.07C53.2901 53.3133 53.4501 53.5567 53.6067 53.8C53.7634 54.04 53.9134 54.28 54.0567 54.52L53.5567 54.505C53.7134 54.2683 53.8717 54.0317 54.0317 53.795C54.1917 53.555 54.3534 53.3133 54.5167 53.07L56.2017 50.68H58.7017L54.6967 56.155L54.7267 55.245L58.8967 61H56.3467L54.3167 58.075C54.1734 57.8583 54.0351 57.645 53.9017 57.435C53.7684 57.225 53.6384 57.0217 53.5117 56.825H54.0767C53.9467 57.035 53.8134 57.2433 53.6767 57.45C53.5401 57.6567 53.3967 57.8717 53.2467 58.095L51.1967 61H48.6717ZM64.912 61.24C64.0354 61.24 63.2854 61.015 62.662 60.565C62.042 60.1117 61.572 59.48 61.252 58.67C60.932 57.86 60.772 56.9167 60.772 55.84V55.8C60.772 54.7333 60.932 53.7967 61.252 52.99C61.5754 52.1833 62.047 51.5567 62.667 51.11C63.2904 50.6633 64.0387 50.44 64.912 50.44C65.8254 50.44 66.622 50.6617 67.302 51.105C67.9854 51.545 68.5104 52.1717 68.877 52.985C69.247 53.7983 69.432 54.75 69.432 55.84C69.432 56.93 69.247 57.8817 68.877 58.695C68.5104 59.5083 67.9854 60.1367 67.302 60.58C66.622 61.02 65.8254 61.24 64.912 61.24ZM59.492 65.08V50.68H61.632V53.085H61.472V58.545H61.722V65.08H59.492ZM64.397 59.37C64.9537 59.37 65.437 59.2267 65.847 58.94C66.2604 58.65 66.5787 58.235 66.802 57.695C67.0287 57.155 67.142 56.5133 67.142 55.77C67.142 55.03 67.0304 54.4017 66.807 53.885C66.5837 53.365 66.2654 52.9717 65.852 52.705C65.442 52.4383 64.957 52.305 64.397 52.305C63.8337 52.305 63.3454 52.445 62.932 52.725C62.5187 53.0017 62.2004 53.405 61.977 53.935C61.7537 54.465 61.642 55.0983 61.642 55.835C61.642 56.575 61.7537 57.21 61.977 57.74C62.2004 58.27 62.5187 58.675 62.932 58.955C63.3454 59.2317 63.8337 59.37 64.397 59.37ZM70.7327 61V46.76H72.9627V61H70.7327ZM79.4572 61.24C78.4405 61.24 77.5372 61.0183 76.7472 60.575C75.9605 60.1317 75.3472 59.5033 74.9072 58.69C74.4672 57.8733 74.2472 56.925 74.2472 55.845C74.2472 54.765 74.4672 53.8167 74.9072 53C75.3472 52.1833 75.9605 51.5533 76.7472 51.11C77.5372 50.6667 78.4405 50.445 79.4572 50.445C80.4705 50.445 81.3689 50.6667 82.1522 51.11C82.9389 51.5533 83.5522 52.1833 83.9922 53C84.4322 53.8167 84.6522 54.765 84.6522 55.845C84.6522 56.925 84.4322 57.8733 83.9922 58.69C83.5522 59.5033 82.9389 60.1317 82.1522 60.575C81.3689 61.0183 80.4705 61.24 79.4572 61.24ZM79.4572 59.375C80.0405 59.375 80.5489 59.2383 80.9822 58.965C81.4189 58.6917 81.7572 58.29 81.9972 57.76C82.2372 57.23 82.3572 56.5917 82.3572 55.845C82.3572 55.0983 82.2372 54.46 81.9972 53.93C81.7572 53.3967 81.4189 52.9933 80.9822 52.72C80.5489 52.4467 80.0405 52.31 79.4572 52.31C78.8672 52.31 78.3539 52.4467 77.9172 52.72C77.4805 52.9933 77.1422 53.395 76.9022 53.925C76.6622 54.455 76.5422 55.095 76.5422 55.845C76.5422 56.595 76.6622 57.235 76.9022 57.765C77.1422 58.2917 77.4805 58.6917 77.9172 58.965C78.3539 59.2383 78.8672 59.375 79.4572 59.375ZM85.9483 61V50.68H88.0983V53.295H88.1783V61H85.9483ZM87.6183 54.675C87.6183 53.9883 87.7483 53.3283 88.0083 52.695C88.2683 52.0617 88.6716 51.5417 89.2183 51.135C89.7683 50.725 90.4549 50.52 91.2783 50.52C91.3749 50.52 91.4716 50.5233 91.5683 50.53C91.6649 50.5367 91.7649 50.545 91.8683 50.555V52.62C91.7683 52.62 91.6716 52.62 91.5783 52.62C91.4883 52.62 91.4033 52.62 91.3233 52.62C90.6666 52.62 90.1033 52.73 89.6333 52.95C89.1633 53.17 88.8033 53.5017 88.5533 53.945C88.3033 54.3883 88.1783 54.9367 88.1783 55.59H87.6183V54.675ZM96.9152 61.24C95.9218 61.24 95.0418 61.0217 94.2752 60.585C93.5118 60.1483 92.9185 59.5233 92.4952 58.71C92.0752 57.8967 91.8652 56.9417 91.8652 55.845C91.8652 54.775 92.0718 53.8317 92.4852 53.015C92.9018 52.195 93.4885 51.5617 94.2452 51.115C95.0018 50.665 95.8802 50.44 96.8802 50.44C97.9035 50.44 98.7902 50.6733 99.5402 51.14C100.29 51.6067 100.862 52.25 101.255 53.07C101.652 53.8867 101.85 54.815 101.85 55.855C101.85 55.9583 101.848 56.0667 101.845 56.18C101.845 56.29 101.842 56.4067 101.835 56.53H93.0002V54.905H100.385L99.6052 55.345C99.5985 54.7417 99.4885 54.2067 99.2752 53.74C99.0652 53.27 98.7552 52.9017 98.3452 52.635C97.9352 52.3683 97.4385 52.235 96.8552 52.235C96.2985 52.235 95.8118 52.3617 95.3952 52.615C94.9818 52.865 94.6585 53.2467 94.4252 53.76C94.1918 54.27 94.0718 54.9033 94.0652 55.66V56.045C94.0652 56.8083 94.1818 57.445 94.4152 57.955C94.6485 58.4617 94.9802 58.84 95.4102 59.09C95.8402 59.34 96.3518 59.465 96.9452 59.465C97.3752 59.465 97.7568 59.3983 98.0902 59.265C98.4235 59.1317 98.7002 58.9433 98.9202 58.7C99.1435 58.4533 99.3102 58.1583 99.4202 57.815H101.605C101.432 58.4983 101.135 59.0983 100.715 59.615C100.295 60.1283 99.7618 60.5283 99.1152 60.815C98.4718 61.0983 97.7385 61.24 96.9152 61.24Z" fill="white"/>
<path d="M77 87C77 86.4477 76.5523 86 76 86H67C66.4477 86 66 86.4477 66 87C66 87.5523 66.4477 88 67 88H75V96C75 96.5523 75.4477 97 76 97C76.5523 97 77 96.5523 77 96V87ZM65.7071 98.7071L76.7071 87.7071L75.2929 86.2929L64.2929 97.2929L65.7071 98.7071Z" fill="white"/>
</svg>
