<svg width="143" height="36" viewBox="0 0 143 36" fill="none" xmlns="http://www.w3.org/2000/svg">
<path d="M7.835 17.3565C5.17972 17.7061 2.58693 17.5575 0 16.8643L1.52424 11.1758L15.2666 14.8581C12.9746 16.1635 10.4509 17.0121 7.835 17.3565Z" fill="#26CA57"/>
<path fill-rule="evenodd" clip-rule="evenodd" d="M15.2666 14.8581C15.3012 14.8384 15.3356 14.8186 15.3701 14.7987C17.6895 13.4596 19.7224 11.6768 21.3528 9.55205C22.9831 7.4273 24.179 5.00223 24.8722 2.4153L19.1629 0.885498C18.6706 2.72268 17.8213 4.44491 16.6635 5.95385C15.5056 7.4628 14.0619 8.72892 12.4147 9.67991C10.7676 10.6309 8.94921 11.2481 7.0635 11.4964C5.17778 11.7447 3.36141 11.6681 1.52424 11.1758L15.2666 14.8581ZM16.0194 21.1567L0 16.8643C2.58693 17.5575 5.17972 17.7061 7.835 17.3565C10.4509 17.0121 12.9746 16.1635 15.2666 14.8581L31.231 19.1357C28.6441 18.4425 26.0513 18.2939 23.396 18.6435C20.7407 18.9931 18.3388 19.8176 16.0194 21.1567ZM29.7068 24.8242C27.8696 24.332 26.0532 24.2554 24.1675 24.5036C22.2818 24.7519 20.4634 25.3691 18.8163 26.3201C17.1691 27.2711 15.7254 28.5372 14.5675 30.0462C13.4097 31.5551 12.5604 33.2773 12.0681 35.1145L6.3588 33.5847C7.05197 30.9978 8.24788 28.5727 9.87826 26.448C11.5086 24.3232 13.7001 22.4958 16.0194 21.1567L29.7068 24.8242Z" fill="#19913C"/>
<path d="M23.396 18.6435C26.0513 18.2939 28.6441 18.4425 31.231 19.1357L29.7068 24.8242L16.0194 21.1567C18.3388 19.8176 20.7407 18.9931 23.396 18.6435Z" fill="#26CA57"/>
<path d="M48.548 29.462C46.7327 29.462 45.1787 29.1937 43.886 28.657C42.598 28.1157 41.6087 27.3223 40.918 26.277C40.2274 25.227 39.8634 23.946 39.826 22.434H44.159C44.187 23.3347 44.39 24.0487 44.768 24.576C45.146 25.1033 45.657 25.4767 46.301 25.696C46.945 25.9153 47.7127 26.025 48.604 26.025C49.4394 26.025 50.1394 25.9317 50.704 25.745C51.2734 25.5537 51.7004 25.269 51.985 24.891C52.2744 24.513 52.419 24.0417 52.419 23.477C52.419 23.0103 52.2954 22.616 52.048 22.294C51.8054 21.972 51.4064 21.699 50.851 21.475C50.3004 21.2463 49.5467 21.0457 48.59 20.873L46.399 20.488C45.1904 20.2733 44.138 19.9233 43.242 19.438C42.3507 18.9527 41.6507 18.2993 41.142 17.478C40.6334 16.652 40.379 15.651 40.379 14.475C40.379 13.3597 40.645 12.3633 41.177 11.486C41.7137 10.6087 42.5514 9.911 43.69 9.393C44.8334 8.875 46.2754 8.616 48.016 8.616C49.8314 8.616 51.341 8.87267 52.545 9.386C53.749 9.89467 54.6567 10.6273 55.268 11.584C55.8794 12.536 56.22 13.684 56.29 15.028H52.16C52.0994 14.3653 51.936 13.817 51.67 13.383C51.404 12.9443 50.984 12.6107 50.41 12.382C49.8407 12.1487 49.0824 12.032 48.135 12.032C47.379 12.032 46.749 12.1183 46.245 12.291C45.7457 12.4637 45.3724 12.7133 45.125 13.04C44.8777 13.3667 44.754 13.7563 44.754 14.209C44.754 14.671 44.8544 15.0583 45.055 15.371C45.2604 15.679 45.5987 15.9427 46.07 16.162C46.5414 16.3813 47.19 16.568 48.016 16.722L50.116 17.093C51.7074 17.373 52.9954 17.772 53.98 18.29C54.9694 18.8033 55.6927 19.4473 56.15 20.222C56.6074 20.9967 56.836 21.93 56.836 23.022C56.836 24.3333 56.5164 25.4743 55.877 26.445C55.2377 27.411 54.2974 28.1553 53.056 28.678C51.8147 29.2007 50.312 29.462 48.548 29.462ZM67.1529 29.336C65.8883 29.336 64.8289 29.014 63.9749 28.37C63.1256 27.7213 62.4909 26.8323 62.0709 25.703C61.6556 24.569 61.4479 23.26 61.4479 21.776V21.72C61.4479 20.25 61.6579 18.9527 62.0779 17.828C62.4979 16.6987 63.1349 15.8143 63.9889 15.175C64.8429 14.5357 65.8976 14.216 67.1529 14.216C68.4223 14.216 69.5306 14.5263 70.4779 15.147C71.4253 15.7677 72.1533 16.6473 72.6619 17.786C73.1753 18.9247 73.4319 20.2547 73.4319 21.776C73.4319 23.2973 73.1753 24.6273 72.6619 25.766C72.1533 26.9047 71.4253 27.7843 70.4779 28.405C69.5306 29.0257 68.4223 29.336 67.1529 29.336ZM58.7039 34.712V14.552H62.6099V18.031H62.3229V25.437H62.7429V34.712H58.7039ZM65.9629 26.074C66.6536 26.074 67.2509 25.9013 67.7549 25.556C68.2636 25.2107 68.6533 24.7113 68.9239 24.058C69.1946 23.4 69.3299 22.6137 69.3299 21.699C69.3299 20.789 69.1946 20.019 68.9239 19.389C68.6579 18.7543 68.2706 18.276 67.7619 17.954C67.2579 17.6273 66.6583 17.464 65.9629 17.464C65.2583 17.464 64.6539 17.632 64.1499 17.968C63.6459 18.2993 63.2586 18.787 62.9879 19.431C62.7173 20.075 62.5819 20.852 62.5819 21.762C62.5819 22.672 62.7173 23.4513 62.9879 24.1C63.2586 24.744 63.6459 25.234 64.1499 25.57C64.6539 25.906 65.2583 26.074 65.9629 26.074ZM82.297 29.336C80.8083 29.336 79.504 29.0327 78.384 28.426C77.264 27.8193 76.3983 26.949 75.787 25.815C75.1757 24.6763 74.87 23.3393 74.87 21.804C74.87 20.2967 75.171 18.9713 75.773 17.828C76.3797 16.68 77.2407 15.791 78.356 15.161C79.4713 14.531 80.771 14.216 82.255 14.216C83.739 14.216 85.0317 14.531 86.133 15.161C87.239 15.791 88.0883 16.6753 88.681 17.814C89.2737 18.948 89.57 20.2547 89.57 21.734C89.57 21.902 89.5653 22.084 89.556 22.28C89.5467 22.4713 89.535 22.6813 89.521 22.91H77.11V20.376H86.595L85.601 20.943C85.5963 20.1917 85.4633 19.536 85.202 18.976C84.9453 18.4113 84.565 17.9727 84.061 17.66C83.557 17.3427 82.941 17.184 82.213 17.184C81.4943 17.184 80.8783 17.3403 80.365 17.653C79.8563 17.9657 79.462 18.437 79.182 19.067C78.9067 19.697 78.7667 20.4833 78.762 21.426V22.462C78.762 23.33 78.902 24.0603 79.182 24.653C79.4667 25.241 79.8773 25.6843 80.414 25.983C80.9553 26.2817 81.6063 26.431 82.367 26.431C82.9037 26.431 83.3773 26.354 83.788 26.2C84.2033 26.046 84.5463 25.8243 84.817 25.535C85.0923 25.2457 85.3 24.8957 85.44 24.485H89.248C89.0007 25.479 88.562 26.34 87.932 27.068C87.302 27.796 86.5063 28.356 85.545 28.748C84.5883 29.14 83.5057 29.336 82.297 29.336ZM98.3528 29.336C96.8735 29.336 95.5785 29.028 94.4678 28.412C93.3618 27.7913 92.5078 26.9117 91.9058 25.773C91.3038 24.6297 91.0028 23.2973 91.0028 21.776C91.0028 20.25 91.3038 18.9177 91.9058 17.779C92.5078 16.6403 93.3665 15.763 94.4818 15.147C95.5971 14.5263 96.9038 14.216 98.4018 14.216C99.7551 14.216 100.938 14.4563 101.951 14.937C102.963 15.413 103.764 16.0827 104.352 16.946C104.944 17.8047 105.299 18.794 105.416 19.914H101.349C101.237 19.368 101.041 18.913 100.761 18.549C100.481 18.185 100.135 17.9167 99.7248 17.744C99.3141 17.5667 98.8568 17.478 98.3528 17.478C97.6761 17.478 97.0951 17.6343 96.6098 17.947C96.1245 18.255 95.7511 18.7287 95.4898 19.368C95.2331 20.0073 95.1048 20.81 95.1048 21.776C95.1048 22.756 95.2355 23.5657 95.4968 24.205C95.7581 24.8397 96.1291 25.311 96.6098 25.619C97.0905 25.9223 97.6668 26.074 98.3388 26.074C98.8615 26.074 99.3305 25.983 99.7458 25.801C100.166 25.6143 100.518 25.3273 100.803 24.94C101.087 24.5527 101.283 24.065 101.391 23.477H105.416C105.28 24.653 104.905 25.682 104.289 26.564C103.677 27.446 102.863 28.1297 101.846 28.615C100.828 29.0957 99.6641 29.336 98.3528 29.336ZM113.037 29.091C111.917 29.091 111 28.965 110.286 28.713C109.576 28.4563 109.047 28.0503 108.697 27.495C108.351 26.935 108.179 26.2023 108.179 25.297V18.577V16.057V13.572V10.128H112.218V13.572V16.057V18.577V24.66C112.218 24.982 112.274 25.2363 112.386 25.423C112.498 25.605 112.67 25.7333 112.904 25.808C113.137 25.878 113.459 25.913 113.87 25.913C114.01 25.913 114.161 25.913 114.325 25.913C114.493 25.913 114.665 25.913 114.843 25.913H115.053V29C115.02 29 114.987 29.0023 114.955 29.007C114.922 29.0117 114.889 29.014 114.857 29.014C114.549 29.042 114.238 29.0607 113.926 29.07C113.618 29.084 113.321 29.091 113.037 29.091ZM105.883 17.653V14.552H110.209H115.053V17.653H110.209H105.883ZM117.028 29V14.552H120.955V18.304H121.067V29H117.028ZM120.43 19.998C120.43 18.962 120.6 18.017 120.941 17.163C121.286 16.3043 121.816 15.6183 122.53 15.105C123.249 14.587 124.145 14.328 125.218 14.328C125.377 14.328 125.528 14.3327 125.673 14.342C125.822 14.3513 125.969 14.3677 126.114 14.391V18.08C125.946 18.08 125.78 18.08 125.617 18.08C125.458 18.08 125.304 18.08 125.155 18.08C124.287 18.08 123.55 18.227 122.943 18.521C122.336 18.8103 121.872 19.256 121.55 19.858C121.228 20.46 121.067 21.2137 121.067 22.119H120.43V19.998ZM136.646 29C136.613 28.8927 136.58 28.783 136.548 28.671C136.52 28.5543 136.494 28.4353 136.471 28.314C136.424 28.0993 136.382 27.8823 136.345 27.663C136.312 27.439 136.286 27.2243 136.268 27.019C136.249 26.8137 136.24 26.627 136.24 26.459L136.156 26.396V20.978V20.138V18.801C136.156 18.423 136.076 18.1127 135.918 17.87C135.759 17.6273 135.5 17.4477 135.141 17.331C134.786 17.2097 134.317 17.149 133.734 17.149C133.122 17.149 132.628 17.2143 132.25 17.345C131.872 17.4757 131.585 17.695 131.389 18.003C131.197 18.311 131.083 18.7333 131.046 19.27H127.014C127.065 18.1827 127.324 17.268 127.791 16.526C128.262 15.7793 128.988 15.2077 129.968 14.811C130.948 14.4143 132.215 14.216 133.769 14.216C135.267 14.216 136.489 14.3933 137.437 14.748C138.384 15.1027 139.075 15.6067 139.509 16.26C139.947 16.9133 140.167 17.6997 140.167 18.619V26.151C140.167 26.3937 140.183 26.6853 140.216 27.026C140.248 27.362 140.295 27.7073 140.356 28.062C140.421 28.412 140.493 28.7247 140.573 29H136.646ZM131.578 29.399C130.537 29.399 129.625 29.2357 128.841 28.909C128.057 28.5823 127.448 28.0947 127.014 27.446C126.584 26.7927 126.37 25.9947 126.37 25.052C126.37 24.226 126.549 23.505 126.909 22.889C127.273 22.273 127.858 21.7667 128.666 21.37C129.473 20.9733 130.525 20.7073 131.823 20.572L134.161 20.341C134.618 20.2943 134.991 20.215 135.281 20.103C135.57 19.9863 135.787 19.823 135.932 19.613C136.081 19.403 136.156 19.1323 136.156 18.801L136.856 19.69C136.832 20.418 136.748 20.9803 136.604 21.377C136.464 21.7737 136.235 22.07 135.918 22.266C135.605 22.4573 135.157 22.588 134.574 22.658L132.845 22.875C132.266 22.945 131.804 23.0617 131.459 23.225C131.113 23.3883 130.864 23.5983 130.71 23.855C130.56 24.1117 130.486 24.4243 130.486 24.793C130.486 25.1803 130.57 25.5117 130.738 25.787C130.906 26.0577 131.16 26.2653 131.501 26.41C131.846 26.55 132.273 26.62 132.782 26.62C133.407 26.62 133.974 26.501 134.483 26.263C134.996 26.025 135.402 25.6633 135.701 25.178C136.004 24.6927 136.156 24.093 136.156 23.379H136.954L136.989 25.213C136.83 26.095 136.517 26.8487 136.051 27.474C135.589 28.0993 134.98 28.5777 134.224 28.909C133.468 29.2357 132.586 29.399 131.578 29.399Z" fill="white"/>
</svg>
