<svg width="1431" height="1314" viewBox="0 0 1431 1314" fill="none" xmlns="http://www.w3.org/2000/svg">
<path d="M358.998 628.079C237.334 644.062 118.533 637.267 0 605.575L69.8403 345.487L699.514 513.845C594.496 573.533 478.857 612.334 358.998 628.079Z" fill="#26CA57"/>
<path fill-rule="evenodd" clip-rule="evenodd" d="M699.514 513.845C701.097 512.946 702.677 512.041 704.255 511.132C810.528 449.907 903.676 368.394 978.38 271.247C1053.08 174.101 1107.88 63.2228 1139.64 -55.0555L878.042 -125C855.486 -41.0016 816.571 37.7412 763.518 106.732C710.466 175.724 644.314 233.612 568.841 277.093C493.368 320.574 410.052 348.795 323.648 360.146C237.245 371.497 154.02 367.994 69.8403 345.487L699.514 513.845ZM734.009 801.829L0 605.575C118.533 637.267 237.334 644.062 358.998 628.079C478.857 612.334 594.496 573.533 699.514 513.845L1431 709.425C1312.47 677.733 1193.67 670.938 1072 686.921C950.337 702.904 840.282 740.604 734.009 801.829ZM1361.16 969.513C1276.98 947.006 1193.75 943.503 1107.35 954.854C1020.95 966.205 937.632 994.426 862.159 1037.91C786.686 1081.39 720.534 1139.28 667.482 1208.27C614.429 1277.26 575.514 1356 552.958 1440L291.359 1370.06C323.12 1251.78 377.917 1140.9 452.62 1043.75C527.324 946.606 627.735 863.055 734.009 801.829L1361.16 969.513Z" fill="#19913C"/>
<path d="M1072 686.921C1193.67 670.938 1312.47 677.733 1431 709.425L1361.16 969.513L734.009 801.829C840.282 740.604 950.337 702.904 1072 686.921Z" fill="#26CA57"/>
</svg>
