<svg width="991" height="945" viewBox="0 0 991 945" fill="none" xmlns="http://www.w3.org/2000/svg">
<path d="M248.718 466.613C164.561 477.692 82.3838 472.982 0.3927 451.012L48.7024 270.718L484.258 387.425C411.616 428.8 331.626 455.698 248.718 466.613Z" fill="#26CA57"/>
<path fill-rule="evenodd" clip-rule="evenodd" d="M484.258 387.425C485.353 386.801 486.446 386.174 487.537 385.544C561.048 343.103 625.48 286.597 677.154 219.255C728.828 151.912 766.732 75.0511 788.701 -6.94007L607.749 -55.426C592.147 2.80215 565.228 57.3871 528.531 105.212C491.833 153.037 446.075 193.166 393.87 223.307C341.664 253.448 284.032 273.011 224.266 280.88C164.499 288.748 106.931 286.32 48.7024 270.718L484.258 387.425ZM508.119 587.057L0.3927 451.012C82.3838 472.982 164.561 477.692 248.718 466.613C331.626 455.698 411.616 428.8 484.258 387.425L990.239 523.002C908.248 501.033 826.071 496.322 741.914 507.402C657.757 518.481 581.63 544.615 508.119 587.057ZM941.929 703.296C883.701 687.694 826.133 685.266 766.366 693.134C706.6 701.003 648.968 720.566 596.762 750.707C544.556 780.848 498.798 820.977 462.101 868.802C425.403 916.627 398.485 971.212 382.883 1029.44L201.931 980.954C223.9 898.963 261.804 822.102 313.478 754.76C365.151 687.417 434.607 629.499 508.119 587.057L941.929 703.296Z" fill="#19913C"/>
<path d="M741.914 507.402C826.071 496.322 908.248 501.033 990.239 523.002L941.929 703.296L508.119 587.057C581.63 544.615 657.757 518.481 741.914 507.402Z" fill="#26CA57"/>
</svg>
