<svg width="991" height="1086" viewBox="0 0 991 1086" fill="none" xmlns="http://www.w3.org/2000/svg">
<path d="M248.718 522.613C164.561 533.692 82.3843 528.982 0.393178 507.012L48.7029 326.718L484.258 443.425C411.616 484.8 331.626 511.698 248.718 522.613Z" fill="#26CA57"/>
<path fill-rule="evenodd" clip-rule="evenodd" d="M484.258 443.425C485.353 442.801 486.446 442.174 487.538 441.544C561.049 399.103 625.481 342.597 677.155 275.255C728.828 207.912 766.732 131.051 788.701 49.0599L607.749 0.573988C592.147 58.8021 565.229 113.387 528.531 161.212C491.834 209.037 446.076 249.166 393.87 279.307C341.664 309.448 284.033 329.011 224.266 336.88C164.5 344.748 106.931 342.32 48.7029 326.718L484.258 443.425ZM508.119 643.057L0.393178 507.012C82.3843 528.982 164.561 533.692 248.718 522.613C331.626 511.698 411.616 484.8 484.258 443.425L990.239 579.002C908.248 557.033 826.072 552.322 741.914 563.402C657.757 574.481 581.63 600.615 508.119 643.057ZM941.93 759.296C883.702 743.694 826.133 741.266 766.367 749.134C706.6 757.003 648.969 776.566 596.763 806.707C544.557 836.848 498.799 876.977 462.101 924.802C425.404 972.627 398.486 1027.21 382.883 1085.44L201.931 1036.95C223.901 954.963 261.804 878.102 313.478 810.76C365.152 743.417 434.608 685.499 508.119 643.057L941.93 759.296Z" fill="#19913C"/>
<path d="M741.914 563.402C826.072 552.322 908.248 557.033 990.239 579.002L941.93 759.296L508.119 643.057C581.63 600.615 657.757 574.481 741.914 563.402Z" fill="#26CA57"/>
</svg>
